<svg width="27" height="27" viewBox="0 0 27 27" fill="none" xmlns="http://www.w3.org/2000/svg">
<path d="M13.8374 24.7501H13.7249C12.1819 24.7384 10.6569 24.4189 9.23899 23.8104C7.82109 23.2019 6.53885 22.3166 5.46735 21.2064C3.48043 19.0816 2.35097 16.2961 2.29695 13.3875C2.24294 10.479 3.26819 7.65349 5.17485 5.45638C6.40322 4.07977 7.94745 3.02197 9.67485 2.37388C9.87641 2.29632 10.096 2.27842 10.3075 2.3223C10.5189 2.36619 10.7133 2.47002 10.8674 2.62138C11.01 2.76687 11.1105 2.94837 11.1581 3.14651C11.2056 3.34465 11.1985 3.55199 11.1374 3.74638C10.5208 5.43493 10.3986 7.26431 10.7852 9.01984C11.1718 10.7754 12.0511 12.3842 13.3199 13.6576C14.6005 14.9225 16.2132 15.7988 17.9712 16.1851C19.7292 16.5713 21.5607 16.4517 23.2536 15.8401C23.4551 15.7692 23.6726 15.7571 23.8807 15.8053C24.0889 15.8534 24.279 15.9598 24.4288 16.112C24.5787 16.2643 24.6821 16.456 24.727 16.6649C24.7719 16.8737 24.7564 17.091 24.6824 17.2914C24.1077 18.8256 23.2099 20.2183 22.0499 21.3751C20.9708 22.451 19.6898 23.303 18.2804 23.8822C16.871 24.4614 15.3611 24.7563 13.8374 24.7501Z" fill="#4B47FF"/>
</svg>
