<svg width="27" height="27" viewBox="0 0 27 27" fill="none" xmlns="http://www.w3.org/2000/svg">
<path d="M11.8125 25.3125V22.6282C12.3597 22.7287 12.9237 22.7812 13.5 22.7812C14.0763 22.7812 14.6403 22.7287 15.1875 22.6282V25.3125C15.1875 26.2445 14.432 27 13.5 27C12.568 27 11.8125 26.2445 11.8125 25.3125ZM20.3612 23.3442L18.4004 21.3836C19.3653 20.7826 20.2117 20.0094 20.8968 19.107L22.7476 20.9577C23.4066 21.6168 23.4066 22.6852 22.7476 23.3442C22.0886 24.0033 21.0201 24.0033 20.3612 23.3442ZM3.65576 20.3612L5.61642 18.4004C6.21744 19.3653 6.99063 20.2117 7.89302 20.8968L6.04225 22.7476C5.38323 23.4066 4.31473 23.4066 3.65576 22.7476C2.99674 22.0886 2.99674 21.0201 3.65576 20.3612ZM13.5 20.25C17.2279 20.25 20.25 17.2279 20.25 13.5C20.25 9.7721 17.2279 6.75 13.5 6.75C9.7721 6.75 6.75 9.7721 6.75 13.5C6.75 17.2279 9.7721 20.25 13.5 20.25ZM25.3125 15.1875H22.6282C22.7287 14.6403 22.7812 14.0763 22.7812 13.5C22.7812 12.9237 22.7287 12.3597 22.6282 11.8125H25.3125C26.2445 11.8125 27 12.568 27 13.5C27 14.431 26.2461 15.1859 25.3125 15.1875ZM4.37179 15.1875H1.6875C0.755525 15.1875 0 14.432 0 13.5C0 12.568 0.755525 11.8125 1.6875 11.8125H4.37179C4.27127 12.3597 4.21875 12.9237 4.21875 13.5C4.21875 14.0752 4.27106 14.6382 4.37179 15.1875ZM6.04225 4.25234L7.89302 6.10316C6.99063 6.78829 6.21744 7.63472 5.61642 8.59955L3.65576 6.63884C2.99674 5.97981 2.99674 4.91136 3.65576 4.25234C4.31478 3.59337 5.38323 3.59337 6.04225 4.25234ZM22.7476 6.04225L20.8968 7.89302C20.2117 6.99063 19.3653 6.21744 18.4004 5.61642L20.3612 3.65576C21.0201 2.99674 22.0886 2.99674 22.7476 3.65576C23.4066 4.31473 23.4066 5.38323 22.7476 6.04225ZM15.1875 1.6875C15.1875 0.755525 14.432 0 13.5 0C12.568 0 11.8125 0.755525 11.8125 1.6875V4.37179C12.3597 4.27127 12.9237 4.21875 13.5 4.21875C14.0763 4.21875 14.6403 4.27127 15.1875 4.37179V1.6875Z" fill="#4B47FF"/>
</svg>
