<svg width="219" height="55" viewBox="0 0 219 55" fill="none" xmlns="http://www.w3.org/2000/svg">
  <path
    d="M61.576 43L53.152 17.8H56.86L64.6 41.056H62.728L70.756 17.8H74.068L81.916 41.056H80.116L87.964 17.8H91.384L82.96 43H79.18L71.836 21.436H72.808L65.428 43H61.576ZM103.132 43.288C101.212 43.288 99.3758 43 97.6238 42.424C95.8718 41.824 94.4918 41.056 93.4838 40.12L94.8158 37.312C95.7758 38.152 96.9998 38.848 98.4878 39.4C99.9758 39.952 101.524 40.228 103.132 40.228C104.596 40.228 105.784 40.06 106.696 39.724C107.608 39.388 108.28 38.932 108.712 38.356C109.144 37.756 109.36 37.084 109.36 36.34C109.36 35.476 109.072 34.78 108.496 34.252C107.944 33.724 107.212 33.304 106.3 32.992C105.412 32.656 104.428 32.368 103.348 32.128C102.268 31.888 101.176 31.612 100.072 31.3C98.9918 30.964 97.9958 30.544 97.0838 30.04C96.1958 29.536 95.4758 28.864 94.9238 28.024C94.3718 27.16 94.0958 26.056 94.0958 24.712C94.0958 23.416 94.4318 22.228 95.1038 21.148C95.7998 20.044 96.8558 19.168 98.2718 18.52C99.7118 17.848 101.536 17.512 103.744 17.512C105.208 17.512 106.66 17.704 108.1 18.088C109.54 18.472 110.788 19.024 111.844 19.744L110.656 22.624C109.576 21.904 108.436 21.388 107.236 21.076C106.036 20.74 104.872 20.572 103.744 20.572C102.328 20.572 101.164 20.752 100.252 21.112C99.3398 21.472 98.6678 21.952 98.2358 22.552C97.8278 23.152 97.6238 23.824 97.6238 24.568C97.6238 25.456 97.8998 26.164 98.4518 26.692C99.0278 27.22 99.7598 27.64 100.648 27.952C101.56 28.264 102.556 28.552 103.636 28.816C104.716 29.056 105.796 29.332 106.876 29.644C107.98 29.956 108.976 30.364 109.864 30.868C110.776 31.372 111.508 32.044 112.06 32.884C112.612 33.724 112.888 34.804 112.888 36.124C112.888 37.396 112.54 38.584 111.844 39.688C111.148 40.768 110.068 41.644 108.604 42.316C107.164 42.964 105.34 43.288 103.132 43.288ZM129.415 43.288C127.495 43.288 125.719 42.976 124.087 42.352C122.479 41.704 121.075 40.804 119.875 39.652C118.699 38.476 117.775 37.108 117.103 35.548C116.431 33.988 116.095 32.272 116.095 30.4C116.095 28.528 116.431 26.812 117.103 25.252C117.775 23.692 118.711 22.336 119.911 21.184C121.111 20.008 122.515 19.108 124.123 18.484C125.755 17.836 127.531 17.512 129.451 17.512C131.395 17.512 133.183 17.848 134.815 18.52C136.471 19.168 137.875 20.14 139.027 21.436L136.687 23.704C135.727 22.696 134.647 21.952 133.447 21.472C132.247 20.968 130.963 20.716 129.595 20.716C128.179 20.716 126.859 20.956 125.635 21.436C124.435 21.916 123.391 22.588 122.503 23.452C121.615 24.316 120.919 25.348 120.415 26.548C119.935 27.724 119.695 29.008 119.695 30.4C119.695 31.792 119.935 33.088 120.415 34.288C120.919 35.464 121.615 36.484 122.503 37.348C123.391 38.212 124.435 38.884 125.635 39.364C126.859 39.844 128.179 40.084 129.595 40.084C130.963 40.084 132.247 39.844 133.447 39.364C134.647 38.86 135.727 38.092 136.687 37.06L139.027 39.328C137.875 40.624 136.471 41.608 134.815 42.28C133.183 42.952 131.383 43.288 129.415 43.288ZM143.659 43V16.288H147.115V43H143.659ZM161.886 43.216C159.966 43.216 158.262 42.796 156.774 41.956C155.286 41.116 154.11 39.964 153.246 38.5C152.382 37.012 151.95 35.332 151.95 33.46C151.95 31.564 152.382 29.884 153.246 28.42C154.11 26.956 155.286 25.816 156.774 25C158.262 24.16 159.966 23.74 161.886 23.74C163.782 23.74 165.474 24.16 166.962 25C168.474 25.816 169.65 26.956 170.49 28.42C171.354 29.86 171.786 31.54 171.786 33.46C171.786 35.356 171.354 37.036 170.49 38.5C169.65 39.964 168.474 41.116 166.962 41.956C165.474 42.796 163.782 43.216 161.886 43.216ZM161.886 40.192C163.11 40.192 164.202 39.916 165.162 39.364C166.146 38.812 166.914 38.032 167.466 37.024C168.018 35.992 168.294 34.804 168.294 33.46C168.294 32.092 168.018 30.916 167.466 29.932C166.914 28.924 166.146 28.144 165.162 27.592C164.202 27.04 163.11 26.764 161.886 26.764C160.662 26.764 159.57 27.04 158.61 27.592C157.65 28.144 156.882 28.924 156.306 29.932C155.73 30.916 155.442 32.092 155.442 33.46C155.442 34.804 155.73 35.992 156.306 37.024C156.882 38.032 157.65 38.812 158.61 39.364C159.57 39.916 160.662 40.192 161.886 40.192ZM184.593 43.216C182.961 43.216 181.521 42.916 180.273 42.316C179.049 41.716 178.089 40.804 177.393 39.58C176.721 38.332 176.385 36.772 176.385 34.9V23.92H179.841V34.504C179.841 36.376 180.285 37.78 181.173 38.716C182.085 39.652 183.357 40.12 184.989 40.12C186.189 40.12 187.233 39.88 188.121 39.4C189.009 38.896 189.693 38.176 190.173 37.24C190.653 36.28 190.893 35.128 190.893 33.784V23.92H194.349V43H191.073V37.852L191.613 39.22C190.989 40.492 190.053 41.476 188.805 42.172C187.557 42.868 186.153 43.216 184.593 43.216ZM208.812 43.216C206.964 43.216 205.308 42.808 203.844 41.992C202.404 41.176 201.264 40.036 200.424 38.572C199.584 37.108 199.164 35.404 199.164 33.46C199.164 31.516 199.584 29.824 200.424 28.384C201.264 26.92 202.404 25.78 203.844 24.964C205.308 24.148 206.964 23.74 208.812 23.74C210.42 23.74 211.872 24.1 213.168 24.82C214.464 25.54 215.496 26.62 216.264 28.06C217.056 29.5 217.452 31.3 217.452 33.46C217.452 35.62 217.068 37.42 216.3 38.86C215.556 40.3 214.536 41.392 213.24 42.136C211.944 42.856 210.468 43.216 208.812 43.216ZM209.1 40.192C210.3 40.192 211.38 39.916 212.34 39.364C213.324 38.812 214.092 38.032 214.644 37.024C215.22 35.992 215.508 34.804 215.508 33.46C215.508 32.092 215.22 30.916 214.644 29.932C214.092 28.924 213.324 28.144 212.34 27.592C211.38 27.04 210.3 26.764 209.1 26.764C207.876 26.764 206.784 27.04 205.824 27.592C204.864 28.144 204.096 28.924 203.52 29.932C202.944 30.916 202.656 32.092 202.656 33.46C202.656 34.804 202.944 35.992 203.52 37.024C204.096 38.032 204.864 38.812 205.824 39.364C206.784 39.916 207.876 40.192 209.1 40.192ZM215.616 43V37.852L215.832 33.424L215.472 28.996V16.288H218.928V43H215.616Z"
    fill="#14142A" />
  <path fill-rule="evenodd" clip-rule="evenodd"
    d="M47.4568 13.3754L24.2898 0V16.96L26.9309 18.4848V18.4846L41.2944 26.7774V29.4525L35.8733 26.3226V26.3228L24.2898 19.635V26.7509L47.4568 40.1263V23.1659L44.8157 21.641V21.6415L30.4522 13.3488V10.6737L35.8733 13.8036V13.8031L47.4568 20.4908V13.3754ZM14.5296 5.03352L8.41437 8.67168V28.3071L6.11538 29.6749V10.0394L0 13.6777V40.4286L22.9899 26.751V0.000158294L16.8286 3.66576V23.3012L14.5296 24.6689V5.03352ZM0.481489 41.6242L23.6484 28.2487L29.7573 31.7757L18.1205 38.4942L18.1208 38.4943L12.6994 41.6244L23.5415 47.8841L32.9473 42.4536L32.9471 42.4535L40.5995 38.0354L46.8154 41.6242L23.6484 54.9996L0.481489 41.6242Z"
    fill="url(#paint0_linear_0_1)" />
  <defs>
    <linearGradient id="paint0_linear_0_1" x1="47.4561" y1="13.2416" x2="0.00253963" y2="13.2372"
      gradientUnits="userSpaceOnUse">
      <stop stop-color="#4B47FF" />
      <stop offset="1" stop-color="#AE47FF" />
    </linearGradient>
  </defs>
</svg>
  
