<svg width="1920" height="1080" viewBox="0 0 1920 1080" fill="none" xmlns="http://www.w3.org/2000/svg">
<path d="M747 815C747 877.96 695.96 929 633 929C570.04 929 519 877.96 519 815C519 752.04 570.04 701 633 701C695.96 701 747 752.04 747 815Z" fill="#CECEDB"/>
<path d="M439 331C439 393.96 387.96 445 325 445C262.04 445 211 393.96 211 331C211 268.04 262.04 217 325 217C387.96 217 439 268.04 439 331Z" fill="#CECEDB"/>
<path d="M553 414C553 476.96 501.96 528 439 528C376.04 528 325 476.96 325 414C325 351.04 376.04 300 439 300C501.96 300 553 351.04 553 414Z" fill="#CECEDB"/>
<path d="M1632 300C1632 362.96 1580.96 414 1518 414C1455.04 414 1404 362.96 1404 300C1404 237.04 1455.04 186 1518 186C1580.96 186 1632 237.04 1632 300Z" fill="#CECEDB"/>
<path d="M1765 300C1765 362.96 1713.96 414 1651 414C1588.04 414 1537 362.96 1537 300C1537 237.04 1588.04 186 1651 186C1713.96 186 1765 237.04 1765 300Z" fill="#CECEDB"/>
<path d="M1993 172C1993 234.96 1941.96 286 1879 286C1816.04 286 1765 234.96 1765 172C1765 109.04 1816.04 58 1879 58C1941.96 58 1993 109.04 1993 172Z" fill="#CECEDB"/>
<path d="M2073 72C2073 134.96 2021.96 186 1959 186C1896.04 186 1845 134.96 1845 72C1845 9.03954 1896.04 -42 1959 -42C2021.96 -42 2073 9.03954 2073 72Z" fill="#CECEDB"/>
<path d="M2046 395C2046 528.653 1932.95 637 1793.5 637C1654.05 637 1541 528.653 1541 395C1541 261.347 1654.05 153 1793.5 153C1932.95 153 2046 261.347 2046 395Z" fill="#B0B0E1"/>
<path d="M633 637C633 770.653 519.952 879 380.5 879C241.048 879 128 770.653 128 637C128 503.347 241.048 395 380.5 395C519.952 395 633 503.347 633 637Z" fill="#B0B0E1"/>
<path d="M1693 573C1693 706.653 1579.95 815 1440.5 815C1301.05 815 1188 706.653 1188 573C1188 439.347 1301.05 331 1440.5 331C1579.95 331 1693 439.347 1693 573Z" fill="#B0B0E1"/>
<path d="M325 414C325 547.653 211.952 656 72.5 656C-66.9519 656 -180 547.653 -180 414C-180 280.347 -66.9519 172 72.5 172C211.952 172 325 280.347 325 414Z" fill="#B0B0E1"/>
<path d="M2267 879.619C2267 1156.31 2042.69 1380.62 1766 1380.62C1489.31 1380.62 1265 1156.31 1265 879.619C1265 602.924 1489.31 378.619 1766 378.619C2042.69 378.619 2267 602.924 2267 879.619Z" fill="#8483E1"/>
<path d="M688 958.119C688 1215.21 479.589 1423.62 222.5 1423.62C-34.5886 1423.62 -243 1215.21 -243 958.119C-243 701.031 -34.5886 492.619 222.5 492.619C479.589 492.619 688 701.031 688 958.119Z" fill="#8483E1"/>
<path d="M1428 1121.12C1428 1378.21 1219.59 1586.62 962.5 1586.62C705.411 1586.62 497 1378.21 497 1121.12C497 864.031 705.411 655.619 962.5 655.619C1219.59 655.619 1428 864.031 1428 1121.12Z" fill="#8483E1"/>
</svg>
