<svg width="24" height="24" viewBox="0 0 24 24" fill="none" xmlns="http://www.w3.org/2000/svg">
<path d="M9.25 7H18.75V5C18.75 3 18 2 15.75 2H12.25C10 2 9.25 3 9.25 5V7ZM18 15V19C18 21 17 22 15 22H13C11 22 10 21 10 19V15H18Z" stroke="black" stroke-width="1.5" stroke-miterlimit="10" stroke-linecap="round" stroke-linejoin="round"/>
<path d="M19 15H9M9 11H12M23 10V15C23 17 22 18 20 18H18V15H10V18H8C6 18 5 17 5 15V10C5 8 6 7 8 7H20C22 7 23 8 23 10Z" stroke="black" stroke-width="1.5" stroke-miterlimit="10" stroke-linecap="round" stroke-linejoin="round"/>
</svg>
