<svg width="106" height="106" viewBox="0 0 106 106" fill="none" xmlns="http://www.w3.org/2000/svg">
<path d="M53 22.7143C49.2563 22.7143 45.5966 23.8244 42.4839 25.9043C39.3711 27.9842 36.9449 30.9405 35.5123 34.3992C34.0796 37.8579 33.7048 41.6638 34.4351 45.3356C35.1655 49.0074 36.9683 52.3802 39.6155 55.0274C42.2627 57.6746 45.6354 59.4774 49.3072 60.2077C52.979 60.9381 56.7849 60.5632 60.2437 59.1306C63.7024 57.6979 66.6586 55.2718 68.7385 52.159C70.8184 49.0462 71.9286 45.3866 71.9286 41.6429C71.9286 36.6227 69.9343 31.8081 66.3845 28.2583C62.8347 24.7085 58.0202 22.7143 53 22.7143ZM53 53C50.7538 53 48.558 52.3339 46.6903 51.086C44.8226 49.838 43.367 48.0643 42.5074 45.989C41.6478 43.9138 41.4229 41.6303 41.8611 39.4272C42.2993 37.2241 43.381 35.2005 44.9693 33.6121C46.5576 32.0238 48.5813 30.9422 50.7843 30.5039C52.9874 30.0657 55.2709 30.2906 57.3462 31.1502C59.4214 32.0098 61.1952 33.4655 62.4431 35.3332C63.6911 37.2008 64.3571 39.3966 64.3571 41.6429C64.3537 44.6539 63.1561 47.5407 61.027 49.6698C58.8978 51.7989 56.0111 52.9966 53 53Z" fill="#14142A"/>
<path d="M53 0C42.5176 0 32.2706 3.1084 23.5548 8.93211C14.839 14.7558 8.04585 23.0333 4.03441 32.7178C0.0229641 42.4023 -1.02661 53.0588 1.0184 63.3398C3.06342 73.6208 8.11118 83.0645 15.5234 90.4766C22.9355 97.8888 32.3792 102.937 42.6602 104.982C52.9412 107.027 63.5978 105.977 73.2822 101.966C82.9667 97.9542 91.2442 91.161 97.0679 82.4452C102.892 73.7294 106 63.4824 106 53C105.984 38.9484 100.395 25.4768 90.4592 15.5408C80.5232 5.60483 67.0516 0.0158315 53 0ZM30.2857 92.2824V87.0714C30.289 84.0603 31.4867 81.1735 33.6158 79.0444C35.745 76.9152 38.6318 75.7176 41.6429 75.7143H64.3572C67.3682 75.7176 70.2551 76.9152 72.3842 79.0444C74.5134 81.1735 75.711 84.0603 75.7143 87.0714V92.2824C68.8212 96.3075 60.9823 98.4286 53 98.4286C45.0178 98.4286 37.1789 96.3075 30.2857 92.2824ZM83.2573 86.7905C83.1821 81.8246 81.1587 77.0871 77.6233 73.5989C74.088 70.1108 69.3236 68.1513 64.3572 68.1428H41.6429C36.6764 68.1513 31.9121 70.1108 28.3767 73.5989C24.8413 77.0871 22.818 81.8246 22.7427 86.7905C15.8775 80.6605 11.0363 72.5898 8.85986 63.6472C6.68347 54.7045 7.27465 45.3118 10.5551 36.7126C13.8356 28.1134 19.6506 20.7134 27.2302 15.4925C34.8097 10.2716 43.7963 7.47612 53 7.47612C62.2037 7.47612 71.1903 10.2716 78.7699 15.4925C86.3494 20.7134 92.1644 28.1134 95.4449 36.7126C98.7254 45.3118 99.3166 54.7045 97.1402 63.6472C94.9638 72.5898 90.1225 80.6605 83.2573 86.7905Z" fill="#14142A"/>
</svg>
