<svg width="20" height="21" viewBox="0 0 20 21" fill="none" xmlns="http://www.w3.org/2000/svg">
<path d="M19.4452 0.308243C19.3169 0.189797 19.1671 0.105671 19.0067 0.0620489C18.8463 0.0184271 18.6793 0.0164187 18.5182 0.0561718L9.93242 2.2618L1.34668 0.0309647C1.18294 -0.0112707 1.01292 -0.0102875 0.849561 0.0338392C0.686202 0.0779658 0.53381 0.164073 0.403984 0.285607C0.274158 0.407141 0.170319 0.560899 0.100371 0.735179C0.030423 0.909458 -0.00379103 1.09966 0.000333145 1.29132V16.6677C-0.00590159 16.959 0.0764624 17.2439 0.233405 17.4736C0.390348 17.7034 0.61217 17.864 0.861114 17.9281L9.68964 20.1967H9.93242H10.1752L19.0037 17.9281C19.2527 17.864 19.4745 17.7034 19.6314 17.4736C19.7884 17.2439 19.8707 16.959 19.8645 16.6677V1.29132C19.8637 1.10201 19.8256 0.915327 19.753 0.745135C19.6804 0.574944 19.5752 0.425616 19.4452 0.308243ZM2.20746 2.86677L8.82885 4.56825V17.3609L2.20746 15.6594V2.86677ZM17.6574 15.6594L11.036 17.3609V4.56825L17.6574 2.86677V15.6594Z" fill="#14142A"/>
</svg>
