<svg width="23" height="21" viewBox="0 0 23 21" fill="none" xmlns="http://www.w3.org/2000/svg">
<path d="M21.5625 9.00107H4.51375L9.73188 2.46166C9.97587 2.15536 10.0933 1.76047 10.0582 1.36387C10.0232 0.967267 9.83856 0.601432 9.545 0.346847C9.25144 0.0922623 8.87297 -0.0302196 8.49286 0.00634668C8.11275 0.042913 7.76212 0.235532 7.51812 0.54183L0.330625 9.54102C0.282268 9.6126 0.239026 9.6878 0.20125 9.766C0.20125 9.841 0.20125 9.88599 0.100625 9.96099C0.0354684 10.133 0.00135286 10.316 0 10.5009C0.00135286 10.6859 0.0354684 10.8689 0.100625 11.0409C0.100625 11.1159 0.100625 11.1609 0.20125 11.2359C0.239026 11.3141 0.282268 11.3893 0.330625 11.4609L7.51812 20.46C7.65328 20.6294 7.82253 20.7655 8.01384 20.8588C8.20515 20.9522 8.41382 21.0004 8.625 21C8.96087 21.0007 9.28638 20.8786 9.545 20.655C9.69056 20.5291 9.81088 20.3745 9.89907 20.2C9.98727 20.0255 10.0416 19.8345 10.059 19.6381C10.0763 19.4416 10.0564 19.2435 10.0002 19.0552C9.94411 18.8668 9.85292 18.6918 9.73188 18.5402L4.51375 12.0008H21.5625C21.9437 12.0008 22.3094 11.8428 22.579 11.5615C22.8486 11.2802 23 10.8987 23 10.5009C23 10.1031 22.8486 9.72165 22.579 9.44037C22.3094 9.15909 21.9437 9.00107 21.5625 9.00107Z" fill="white"/>
</svg>
