<svg width="24" height="24" viewBox="0 0 24 24" fill="none" xmlns="http://www.w3.org/2000/svg">
<path d="M3 8C3 7.05719 3 6.58579 3.29289 6.29289C3.58579 6 4.05719 6 5 6H19C19.9428 6 20.4142 6 20.7071 6.29289C21 6.58579 21 7.05719 21 8V16C21 16.9428 21 17.4142 20.7071 17.7071C20.4142 18 19.9428 18 19 18H5C4.05719 18 3.58579 18 3.29289 17.7071C3 17.4142 3 16.9428 3 16V8Z" stroke="white" stroke-width="2"/>
<path d="M6 9H8" stroke="white" stroke-width="2" stroke-linecap="round"/>
<path d="M16 15H18" stroke="white" stroke-width="2" stroke-linecap="round"/>
<circle cx="12" cy="12" r="2" stroke="white" stroke-width="2"/>
</svg>
