<svg width="22" height="20" viewBox="0 0 22 20" fill="none" xmlns="http://www.w3.org/2000/svg">
<path d="M11.7415 9.12424C11.5367 8.92348 11.2613 8.81104 10.9745 8.81104C10.6877 8.81104 10.4123 8.92348 10.2075 9.12424L6.92054 12.3017C6.80428 12.3976 6.70906 12.5165 6.64085 12.6509C6.57263 12.7853 6.53288 12.9324 6.52408 13.0828C6.51529 13.2333 6.53763 13.384 6.58973 13.5254C6.64182 13.6669 6.72253 13.796 6.82682 13.9049C6.93112 14.0137 7.05674 14.0998 7.19584 14.1579C7.33494 14.2159 7.48453 14.2447 7.63524 14.2423C7.78595 14.2399 7.93455 14.2064 8.07174 14.144C8.20893 14.0816 8.33176 13.9915 8.43256 13.8794L9.86788 12.4879V18.6675C9.86788 18.9581 9.98331 19.2368 10.1888 19.4422C10.3943 19.6477 10.673 19.7631 10.9635 19.7631C11.2541 19.7631 11.5328 19.6477 11.7383 19.4422C11.9438 19.2368 12.0592 18.9581 12.0592 18.6675V12.5427L13.4726 13.9671C13.5745 14.0698 13.6957 14.1513 13.8292 14.2069C13.9627 14.2625 14.1059 14.2912 14.2505 14.2912C14.3952 14.2912 14.5384 14.2625 14.6719 14.2069C14.8054 14.1513 14.9266 14.0698 15.0285 13.9671C15.1312 13.8652 15.2127 13.744 15.2683 13.6105C15.3239 13.477 15.3526 13.3338 15.3526 13.1892C15.3526 13.0445 15.3239 12.9013 15.2683 12.7678C15.2127 12.6343 15.1312 12.5131 15.0285 12.4112L11.7415 9.12424Z" fill="#14142A"/>
<path d="M17.1759 4.42383C16.7288 3.1321 15.8902 2.01186 14.7768 1.21897C13.6633 0.426087 12.3304 0 10.9635 0C9.59658 0 8.26366 0.426087 7.15021 1.21897C6.03676 2.01186 5.19815 3.1321 4.75107 4.42383C3.76667 4.55568 2.83663 4.95266 2.06045 5.5723C1.28426 6.19194 0.691121 7.01094 0.344487 7.94167C-0.00214755 8.87241 -0.0892389 9.87987 0.0925291 10.8563C0.274297 11.8327 0.718086 12.7413 1.37642 13.485C1.45594 13.6251 1.56537 13.7459 1.69691 13.8388C1.82845 13.9318 1.97887 13.9946 2.13746 14.0228C2.29604 14.051 2.45889 14.0439 2.61442 14.002C2.76994 13.96 2.9143 13.8843 3.03723 13.7803C3.16016 13.6762 3.25863 13.5463 3.32563 13.3998C3.39262 13.2533 3.4265 13.0939 3.42485 12.9328C3.4232 12.7717 3.38605 12.613 3.31606 12.468C3.24607 12.3229 3.14496 12.195 3.01992 12.0935C2.59602 11.6196 2.31868 11.0329 2.22149 10.4045C2.12431 9.77615 2.21146 9.13309 2.47239 8.55326C2.73331 7.97342 3.15681 7.48172 3.69155 7.13772C4.2263 6.79372 4.84934 6.6122 5.48517 6.61516H5.59473C5.85106 6.62033 6.10108 6.53545 6.30128 6.37529C6.50148 6.21513 6.63917 5.98984 6.6904 5.73863C6.89157 4.7479 7.42908 3.85718 8.21183 3.21739C8.99458 2.57761 9.97445 2.22811 10.9854 2.22811C11.9964 2.22811 12.9762 2.57761 13.759 3.21739C14.5417 3.85718 15.0792 4.7479 15.2804 5.73863C15.3316 5.98984 15.4693 6.21513 15.6695 6.37529C15.8697 6.53545 16.1197 6.62033 16.3761 6.61516H16.4418C17.0776 6.6122 17.7007 6.79372 18.2354 7.13772C18.7702 7.48172 19.1937 7.97342 19.4546 8.55326C19.7155 9.13309 19.8027 9.77615 19.7055 10.4045C19.6083 11.0329 19.331 11.6196 18.9071 12.0935C18.8105 12.2017 18.7365 12.328 18.6891 12.4651C18.6418 12.6022 18.6222 12.7473 18.6313 12.892C18.6405 13.0367 18.6783 13.1782 18.7426 13.3082C18.8068 13.4382 18.8963 13.5542 19.0057 13.6493C19.2054 13.8255 19.4625 13.9229 19.7288 13.9233C19.8844 13.9231 20.0381 13.8897 20.1798 13.8255C20.3215 13.7613 20.4479 13.6676 20.5506 13.5507C21.2272 12.8083 21.6866 11.8942 21.8787 10.9084C22.0709 9.92245 21.9882 8.90271 21.6399 7.96061C21.2916 7.01851 20.6909 6.1903 19.9036 5.56654C19.1163 4.94278 18.1727 4.54747 17.1759 4.42383Z" fill="#14142A"/>
</svg>
