<svg width="23" height="23" viewBox="0 0 23 23" fill="none" xmlns="http://www.w3.org/2000/svg">
<path fill-rule="evenodd" clip-rule="evenodd" d="M3.1847 0.00010777L3.09565 5.47273e-05C2.69147 -0.000330962 2.34306 -0.000663566 2.03441 0.0734418C1.06404 0.306394 0.306394 1.06404 0.0734418 2.03441C-0.000663566 2.34306 -0.000330962 2.69147 5.47273e-05 3.09565L0.00010777 3.1847V7.43082L5.47273e-05 7.51986C-0.000330962 7.92404 -0.000663566 8.27247 0.0734418 8.58111C0.306394 9.55147 1.06404 10.3091 2.03441 10.5421C2.34306 10.6162 2.69147 10.6158 3.09565 10.6155L3.1847 10.6154H7.43082L7.51986 10.6155C7.92404 10.6158 8.27247 10.6162 8.58111 10.5421C9.55147 10.3091 10.3091 9.55147 10.5421 8.58111C10.6162 8.27247 10.6158 7.92404 10.6155 7.51986L10.6154 7.43082V3.1847L10.6155 3.09565C10.6158 2.69147 10.6162 2.34306 10.5421 2.03441C10.3091 1.06404 9.55147 0.306394 8.58111 0.0734418C8.27247 -0.000663566 7.92404 -0.000330962 7.51986 5.47273e-05L7.43082 0.00010777H3.1847ZM2.44743 1.79377C2.52358 1.77548 2.64017 1.76932 3.1847 1.76932H7.43082C7.97536 1.76932 8.09195 1.77548 8.16808 1.79377C8.49155 1.87143 8.74409 2.12396 8.82176 2.44743C8.84003 2.52358 8.84619 2.64017 8.84619 3.1847V7.43082C8.84619 7.97536 8.84003 8.09195 8.82176 8.16808C8.74409 8.49155 8.49155 8.74409 8.16808 8.82176C8.09195 8.84003 7.97536 8.84619 7.43082 8.84619H3.1847C2.64017 8.84619 2.52358 8.84003 2.44743 8.82176C2.12396 8.74409 1.87143 8.49155 1.79377 8.16808C1.77548 8.09195 1.76932 7.97536 1.76932 7.43082V3.1847C1.76932 2.64017 1.77548 2.52358 1.79377 2.44743C1.87143 2.12396 2.12396 1.87143 2.44743 1.79377ZM15.5692 0.00010777L15.4802 5.47273e-05C15.076 -0.000330962 14.7276 -0.000663566 14.4189 0.0734418C13.4486 0.306394 12.6909 1.06404 12.458 2.03441C12.3838 2.34306 12.3842 2.69147 12.3846 3.09565L12.3846 3.1847V7.43082L12.3846 7.51986C12.3842 7.92404 12.3838 8.27247 12.458 8.58111C12.6909 9.55147 13.4486 10.3091 14.4189 10.5421C14.7276 10.6162 15.076 10.6158 15.4802 10.6155L15.5692 10.6154H19.8153L19.9043 10.6155C20.3086 10.6158 20.6569 10.6162 20.9657 10.5421C21.9359 10.3091 22.6937 9.55147 22.9267 8.58111C23.0006 8.27247 23.0004 7.92404 22.9999 7.51986V7.43082V3.1847V3.09565C23.0004 2.69147 23.0006 2.34306 22.9267 2.03441C22.6937 1.06404 21.9359 0.306394 20.9657 0.0734418C20.6569 -0.000663566 20.3086 -0.000330962 19.9043 5.47273e-05L19.8153 0.00010777H15.5692ZM14.8319 1.79377C14.9081 1.77548 15.0247 1.76932 15.5692 1.76932H19.8153C20.3599 1.76932 20.4765 1.77548 20.5526 1.79377C20.876 1.87143 21.1286 2.12396 21.2063 2.44743C21.2245 2.52358 21.2307 2.64017 21.2307 3.1847V7.43082C21.2307 7.97536 21.2245 8.09195 21.2063 8.16808C21.1286 8.49155 20.876 8.74409 20.5526 8.82176C20.4765 8.84003 20.3599 8.84619 19.8153 8.84619H15.5692C15.0247 8.84619 14.9081 8.84003 14.8319 8.82176C14.5085 8.74409 14.2559 8.49155 14.1783 8.16808C14.16 8.09195 14.1538 7.97536 14.1538 7.43082V3.1847C14.1538 2.64017 14.16 2.52358 14.1783 2.44743C14.2559 2.12396 14.5085 1.87143 14.8319 1.79377ZM3.09565 12.3846L3.1847 12.3846H7.43082L7.51986 12.3846C7.92404 12.3842 8.27247 12.3838 8.58111 12.458C9.55147 12.6909 10.3091 13.4486 10.5421 14.4189C10.6162 14.7276 10.6158 15.076 10.6155 15.4802L10.6154 15.5692V19.8153L10.6155 19.9043C10.6158 20.3086 10.6162 20.6569 10.5421 20.9657C10.3091 21.9359 9.55147 22.6937 8.58111 22.9267C8.27247 23.0006 7.92404 23.0004 7.51986 22.9999H7.43082H3.1847H3.09565C2.69147 23.0004 2.34306 23.0006 2.03441 22.9267C1.06404 22.6937 0.306394 21.9359 0.0734418 20.9657C-0.000663566 20.6569 -0.000330962 20.3086 5.47273e-05 19.9043L0.00010777 19.8153V15.5692L5.47273e-05 15.4802C-0.000330962 15.076 -0.000663566 14.7276 0.0734418 14.4189C0.306394 13.4486 1.06404 12.6909 2.03441 12.458C2.34306 12.3838 2.69147 12.3842 3.09565 12.3846ZM3.1847 14.1538C2.64017 14.1538 2.52358 14.16 2.44743 14.1783C2.12396 14.2559 1.87143 14.5085 1.79377 14.8319C1.77548 14.9081 1.76932 15.0247 1.76932 15.5692V19.8153C1.76932 20.3599 1.77548 20.4765 1.79377 20.5526C1.87143 20.876 2.12396 21.1286 2.44743 21.2063C2.52358 21.2245 2.64017 21.2307 3.1847 21.2307H7.43082C7.97536 21.2307 8.09195 21.2245 8.16808 21.2063C8.49155 21.1286 8.74409 20.876 8.82176 20.5526C8.84003 20.4765 8.84619 20.3599 8.84619 19.8153V15.5692C8.84619 15.0247 8.84003 14.9081 8.82176 14.8319C8.74409 14.5085 8.49155 14.2559 8.16808 14.1783C8.09195 14.16 7.97536 14.1538 7.43082 14.1538H3.1847ZM15.5692 12.3846L15.4802 12.3846C15.076 12.3842 14.7276 12.3838 14.4189 12.458C13.4486 12.6909 12.6909 13.4486 12.458 14.4189C12.3838 14.7276 12.3842 15.076 12.3846 15.4802L12.3846 15.5692V19.8153L12.3846 19.9043C12.3842 20.3086 12.3838 20.6569 12.458 20.9657C12.6909 21.9359 13.4486 22.6937 14.4189 22.9267C14.7276 23.0006 15.076 23.0004 15.4802 22.9999H15.5692H19.8153H19.9043C20.3086 23.0004 20.6569 23.0006 20.9657 22.9267C21.9359 22.6937 22.6937 21.9359 22.9267 20.9657C23.0006 20.6569 23.0004 20.3086 22.9999 19.9043V19.8153V15.5692V15.4802C23.0004 15.076 23.0006 14.7276 22.9267 14.4189C22.6937 13.4486 21.9359 12.6909 20.9657 12.458C20.6569 12.3838 20.3086 12.3842 19.9043 12.3846L19.8153 12.3846H15.5692ZM14.8319 14.1783C14.9081 14.16 15.0247 14.1538 15.5692 14.1538H19.8153C20.3599 14.1538 20.4765 14.16 20.5526 14.1783C20.876 14.2559 21.1286 14.5085 21.2063 14.8319C21.2245 14.9081 21.2307 15.0247 21.2307 15.5692V19.8153C21.2307 20.3599 21.2245 20.4765 21.2063 20.5526C21.1286 20.876 20.876 21.1286 20.5526 21.2063C20.4765 21.2245 20.3599 21.2307 19.8153 21.2307H15.5692C15.0247 21.2307 14.9081 21.2245 14.8319 21.2063C14.5085 21.1286 14.2559 20.876 14.1783 20.5526C14.16 20.4765 14.1538 20.3599 14.1538 19.8153V15.5692C14.1538 15.0247 14.16 14.9081 14.1783 14.8319C14.2559 14.5085 14.5085 14.2559 14.8319 14.1783Z" fill="black"/>
</svg>
