<svg width="24" height="24" viewBox="0 0 24 24" fill="none" xmlns="http://www.w3.org/2000/svg">
<path d="M23.292 11.496L12.492 0.696C12.06 0.264 11.46 0 10.8 0H2.4C1.08 0 0 1.08 0 2.4V10.8C0 11.46 0.264 12.06 0.708 12.504L11.508 23.304C11.94 23.736 12.54 24 13.2 24C13.86 24 14.46 23.736 14.892 23.292L23.292 14.892C23.736 14.46 24 13.86 24 13.2C24 12.54 23.724 11.928 23.292 11.496ZM13.2 21.612L2.4 10.8V2.4H10.8V2.388L21.6 13.188L13.2 21.612Z" fill="#14142A"/>
<path d="M5.4001 7.2001C6.39421 7.2001 7.2001 6.39421 7.2001 5.4001C7.2001 4.40599 6.39421 3.6001 5.4001 3.6001C4.40599 3.6001 3.6001 4.40599 3.6001 5.4001C3.6001 6.39421 4.40599 7.2001 5.4001 7.2001Z" fill="#14142A"/>
<path d="M8.28003 12.6603C8.28003 13.3443 8.55603 13.9443 9.00003 14.4003L13.2 18.6003L17.4 14.4003C17.844 13.9563 18.12 13.3323 18.12 12.6603C18.12 11.3043 17.016 10.2003 15.66 10.2003C14.976 10.2003 14.364 10.4763 13.92 10.9203L13.2 11.6403L12.48 10.9323C12.036 10.4763 11.412 10.2003 10.74 10.2003C9.38403 10.2003 8.28003 11.3043 8.28003 12.6603Z" fill="#14142A"/>
</svg>
