<svg width="23" height="19" viewBox="0 0 23 19" fill="none" xmlns="http://www.w3.org/2000/svg">
<path d="M19.4725 17.2436C19.4035 16.8642 19.277 16.4504 19.0931 16.025C18.5758 14.91 17.5182 14.2777 15.3685 13.381C15.1731 13.3006 14.4948 13.0247 14.4833 13.0132C14.3684 12.9672 14.2534 12.9212 14.1614 12.8752C14.2189 12.7143 14.2074 12.5418 14.2304 12.3579C14.2304 12.3004 14.2419 12.2315 14.2419 12.174C13.9545 11.9326 13.7016 11.6222 13.4947 11.2658C13.7476 10.875 13.966 10.4496 14.1385 9.97829L14.1844 9.85184C14.1729 9.87483 14.1729 9.87483 14.1614 9.9438C14.1844 9.88632 14.2074 9.82885 14.2304 9.77137C14.6443 9.47248 14.9202 9.00115 15.0581 8.47235C15.265 8.04701 15.3915 7.5297 15.3455 6.9779C15.288 6.40312 15.1041 5.9203 14.8052 5.57543C14.7822 4.96615 14.7362 4.2994 14.6673 3.74761C15.1041 3.55218 15.6214 3.44872 16.0927 3.44872C16.771 3.44872 17.5412 3.66714 18.0815 4.08098C18.6103 4.48333 19.0012 5.05812 19.1966 5.69038C19.2426 5.83983 19.277 5.97778 19.2885 6.12722C19.3805 6.64453 19.438 7.43773 19.438 7.97803V8.0585C19.6219 8.13897 19.7944 8.3344 19.8403 8.77124C19.8633 9.10461 19.7369 9.4035 19.6679 9.51846C19.6104 9.81735 19.438 10.1277 19.1391 10.1967C19.1046 10.3347 19.0586 10.4841 19.0126 10.6106C19.0012 10.622 19.0012 10.6565 19.0012 10.6565C18.7712 11.2658 18.4149 11.8061 17.978 12.197C17.978 12.2659 17.978 12.3349 17.9895 12.3924C18.0355 12.8637 17.8631 13.2086 19.1391 13.7604C20.4036 14.3352 22.3234 14.9215 22.7373 15.8181C23.1281 16.7263 22.9672 17.2551 22.9672 17.2551H19.4725V17.2436ZM13.2418 13.7259C14.9317 14.4846 17.4952 15.2778 18.047 16.4734C18.5643 17.6804 18.3574 18.3932 18.3574 18.3932H0.0446991C0.0446991 18.3932 -0.17372 17.6804 0.355084 16.4734C0.883887 15.2663 3.43594 14.4616 5.1373 13.7144C6.83867 12.9672 6.66624 12.5073 6.72372 11.8866C6.72372 11.8061 6.73521 11.7256 6.73521 11.6452C6.13743 11.1279 5.64312 10.4036 5.33273 9.57594L5.32124 9.56444C5.32124 9.55295 5.30974 9.54145 5.30974 9.52996C5.22927 9.35752 5.17179 9.16209 5.12581 8.96667C4.73495 8.89769 4.50504 8.47235 4.41307 8.07C4.32111 7.90906 4.13718 7.5182 4.18316 7.06987C4.24064 6.48359 4.48205 6.21919 4.74645 6.11573C4.74645 6.08124 4.74645 6.05825 4.74645 6.02376C4.74645 5.28803 4.80393 4.24192 4.94188 3.55218C4.96487 3.35675 5.01085 3.16132 5.06833 2.97739C5.32124 2.12671 5.85004 1.36799 6.55128 0.839188C7.26401 0.287393 8.28713 0 9.1953 0C10.1035 0 11.1266 0.287393 11.8508 0.839188C12.5635 1.36799 13.0809 2.13821 13.3338 2.97739C13.3912 3.17282 13.4372 3.35675 13.4602 3.55218C13.5867 4.24192 13.6556 5.29953 13.6556 6.02376V6.12722C13.9085 6.23068 14.1385 6.49508 14.1959 7.06987C14.2304 7.5182 14.058 7.90906 13.966 8.07C13.8856 8.46085 13.6556 8.8862 13.2648 8.96667C13.2188 9.1506 13.1613 9.34602 13.0923 9.51846C13.0809 9.52996 13.0694 9.57594 13.0694 9.57594C12.759 10.3921 12.2876 11.1049 11.7014 11.6222C11.7014 11.7141 11.7014 11.8061 11.7129 11.8866C11.7703 12.5188 11.5404 12.9787 13.2418 13.7259Z" fill="#14142A"/>
</svg>
