<svg width="28" height="28" viewBox="0 0 28 28" fill="none" xmlns="http://www.w3.org/2000/svg">
<path d="M9.33333 12.8333C10.1409 12.8333 10.9304 12.5938 11.6019 12.1451C12.2734 11.6964 12.7968 11.0587 13.1058 10.3126C13.4149 9.56645 13.4958 8.74543 13.3382 7.95334C13.1807 7.16125 12.7917 6.43367 12.2207 5.86261C11.6496 5.29154 10.922 4.90264 10.13 4.74509C9.33786 4.58753 8.51684 4.6684 7.77071 4.97745C7.02458 5.28651 6.38685 5.80988 5.93817 6.48138C5.48948 7.15288 5.25 7.94235 5.25 8.74996C5.25 9.83293 5.68021 10.8715 6.44598 11.6373C7.21175 12.4031 8.25037 12.8333 9.33333 12.8333ZM9.33333 6.99996C9.67945 6.99996 10.0178 7.1026 10.3056 7.29489C10.5934 7.48718 10.8177 7.76049 10.9501 8.08026C11.0826 8.40004 11.1172 8.7519 11.0497 9.09137C10.9822 9.43084 10.8155 9.74266 10.5708 9.9874C10.326 10.2321 10.0142 10.3988 9.67474 10.4663C9.33528 10.5339 8.98341 10.4992 8.66364 10.3668C8.34387 10.2343 8.07055 10.01 7.87826 9.72221C7.68597 9.43442 7.58333 9.09608 7.58333 8.74996C7.58333 8.28583 7.76771 7.84071 8.0959 7.51252C8.42408 7.18434 8.8692 6.99996 9.33333 6.99996Z" fill="#14142A"/>
<path d="M18.6668 16.3334C17.8592 16.3334 17.0698 16.5729 16.3983 17.0215C15.7268 17.4702 15.2034 18.108 14.8943 18.8541C14.5853 19.6002 14.5044 20.4212 14.662 21.2133C14.8195 22.0054 15.2084 22.733 15.7795 23.3041C16.3505 23.8751 17.0781 24.264 17.8702 24.4216C18.6623 24.5791 19.4833 24.4983 20.2295 24.1892C20.9756 23.8802 21.6133 23.3568 22.062 22.6853C22.5107 22.0138 22.7502 21.2243 22.7502 20.4167C22.7502 19.3337 22.32 18.2951 21.5542 17.5294C20.7884 16.7636 19.7498 16.3334 18.6668 16.3334ZM18.6668 22.1667C18.3207 22.1667 17.9824 22.0641 17.6946 21.8718C17.4068 21.6795 17.1825 21.4062 17.05 21.0864C16.9176 20.7666 16.8829 20.4148 16.9505 20.0753C17.018 19.7358 17.1847 19.424 17.4294 19.1793C17.6741 18.9345 17.986 18.7679 18.3254 18.7003C18.6649 18.6328 19.0168 18.6675 19.3365 18.7999C19.6563 18.9324 19.9296 19.1567 20.1219 19.4445C20.3142 19.7322 20.4168 20.0706 20.4168 20.4167C20.4168 20.8808 20.2325 21.326 19.9043 21.6541C19.5761 21.9823 19.131 22.1667 18.6668 22.1667Z" fill="#14142A"/>
<path d="M23.0301 4.97007C22.9336 4.87342 22.8191 4.79673 22.693 4.74441C22.5668 4.69209 22.4316 4.66516 22.2951 4.66516C22.1585 4.66516 22.0233 4.69209 21.8972 4.74441C21.7711 4.79673 21.6565 4.87342 21.5601 4.97007L4.97008 21.5601C4.77758 21.7565 4.66883 22.02 4.66675 22.2951C4.66644 22.5007 4.72716 22.7017 4.84124 22.8728C4.95531 23.0438 5.11759 23.1771 5.30752 23.2559C5.49744 23.3346 5.70646 23.3551 5.90808 23.3149C6.10971 23.2747 6.29486 23.1756 6.44008 23.0301L23.0301 6.44007C23.1267 6.34362 23.2034 6.22906 23.2557 6.10294C23.3081 5.97682 23.335 5.84161 23.335 5.70507C23.335 5.56853 23.3081 5.43332 23.2557 5.3072C23.2034 5.18108 23.1267 5.06652 23.0301 4.97007Z" fill="#14142A"/>
</svg>
