<svg width="24" height="24" viewBox="0 0 24 24" fill="none" xmlns="http://www.w3.org/2000/svg">
<path d="M11.5964 8.55205C11.7961 8.27887 12.2038 8.27887 12.4036 8.55205L13.3628 9.86389C13.4245 9.94829 13.5111 10.0112 13.6104 10.0438L15.1545 10.5507C15.476 10.6562 15.602 11.044 15.4039 11.3184L14.4527 12.636C14.3915 12.7208 14.3584 12.8226 14.3581 12.9272L14.3532 14.5523C14.3522 14.8907 14.0223 15.1304 13.7001 15.0268L12.153 14.5293C12.0535 14.4973 11.9464 14.4973 11.8469 14.5293L10.2998 15.0268C9.97766 15.1304 9.64779 14.8907 9.64676 14.5523L9.64184 12.9272C9.64152 12.8226 9.60844 12.7208 9.54724 12.636L8.59601 11.3184C8.39793 11.044 8.52393 10.6562 8.84546 10.5507L10.3895 10.0438C10.4888 10.0112 10.5755 9.94829 10.6372 9.86389L11.5964 8.55205Z" fill="white"/>
<path fill-rule="evenodd" clip-rule="evenodd" d="M12 20C16.4183 20 20 16.4183 20 12C20 7.58172 16.4183 4 12 4C7.58172 4 4 7.58172 4 12C4 16.4183 7.58172 20 12 20ZM12 22C17.5228 22 22 17.5228 22 12C22 6.47715 17.5228 2 12 2C6.47715 2 2 6.47715 2 12C2 17.5228 6.47715 22 12 22Z" fill="white"/>
</svg>
