<svg width="22" height="22" viewBox="0 0 22 22" fill="none" xmlns="http://www.w3.org/2000/svg">
<path d="M10.556 7.20726C10.7757 6.90676 11.2242 6.90676 11.4439 7.20726L12.4991 8.65028C12.5669 8.74312 12.6622 8.81234 12.7715 8.84821L14.4699 9.40576C14.8236 9.52187 14.9622 9.94844 14.7443 10.2503L13.698 11.6996C13.6307 11.7929 13.5943 11.9049 13.5939 12.0199L13.5885 13.8075C13.5874 14.1798 13.2245 14.4434 12.8701 14.3294L11.1683 13.7822C11.0589 13.747 10.9411 13.747 10.8316 13.7822L9.12981 14.3294C8.77543 14.4434 8.41257 14.1798 8.41144 13.8075L8.40602 12.0199C8.40568 11.9049 8.36928 11.7929 8.30196 11.6996L7.25561 10.2503C7.03772 9.94844 7.17632 9.52187 7.53001 9.40576L9.22845 8.84821C9.33772 8.81234 9.433 8.74312 9.50089 8.65028L10.556 7.20726Z" fill="#93939D"/>
<path fill-rule="evenodd" clip-rule="evenodd" d="M11 19.8C15.8601 19.8 19.8 15.8601 19.8 11C19.8 6.13989 15.8601 2.2 11 2.2C6.13989 2.2 2.2 6.13989 2.2 11C2.2 15.8601 6.13989 19.8 11 19.8ZM11 22C17.0751 22 22 17.0751 22 11C22 4.92487 17.0751 0 11 0C4.92487 0 0 4.92487 0 11C0 17.0751 4.92487 22 11 22Z" fill="#93939D"/>
</svg>
