<svg width="24" height="22" viewBox="0 0 24 22" fill="none" xmlns="http://www.w3.org/2000/svg">
<path fill-rule="evenodd" clip-rule="evenodd" d="M4.356 0.513333C4.4937 0.352344 4.66464 0.223096 4.85706 0.13448C5.04948 0.045865 5.25882 -1.39343e-05 5.47067 3.17458e-09H17.996C18.2078 -1.39343e-05 18.4172 0.045865 18.6096 0.13448C18.802 0.223096 18.973 0.352344 19.1107 0.513333L22.9372 4.97787C23.2788 5.37655 23.4666 5.88428 23.4667 6.40933V6.78333C23.4667 7.5093 23.24 8.21715 22.8181 8.80795C22.3963 9.39876 21.8003 9.84299 21.1137 10.0786C20.427 10.3141 19.6838 10.3293 18.9881 10.1219C18.2924 9.91445 17.6789 9.49486 17.2333 8.92173C16.9079 9.34086 16.4909 9.67997 16.0143 9.91308C15.5376 10.1462 15.0139 10.2671 14.4833 10.2667C13.9527 10.2673 13.429 10.1464 12.9523 9.91323C12.4756 9.68011 12.0587 9.34094 11.7333 8.92173C11.408 9.34094 10.991 9.68011 10.5144 9.91323C10.0377 10.1464 9.51396 10.2673 8.98333 10.2667C8.4527 10.2673 7.92898 10.1464 7.4523 9.91323C6.97563 9.68011 6.55865 9.34094 6.23333 8.92173C5.78775 9.49486 5.17423 9.91445 4.47852 10.1219C3.78281 10.3293 3.03969 10.3141 2.35301 10.0786C1.66633 9.84299 1.07041 9.39876 0.648534 8.80795C0.226661 8.21715 -8.00779e-05 7.5093 2.12147e-08 6.78333V6.40933C1.84911e-05 5.88428 0.187816 5.37655 0.529467 4.97787L4.35747 0.511867L4.356 0.513333ZM6.96667 6.78333C6.96667 7.31819 7.17914 7.83113 7.55733 8.20933C7.93553 8.58753 8.44848 8.8 8.98333 8.8C9.51819 8.8 10.0311 8.58753 10.4093 8.20933C10.7875 7.83113 11 7.31819 11 6.78333C11 6.58884 11.0773 6.40232 11.2148 6.26479C11.3523 6.12726 11.5388 6.05 11.7333 6.05C11.9278 6.05 12.1144 6.12726 12.2519 6.26479C12.3894 6.40232 12.4667 6.58884 12.4667 6.78333C12.4667 7.31819 12.6791 7.83113 13.0573 8.20933C13.4355 8.58753 13.9485 8.8 14.4833 8.8C15.0182 8.8 15.5311 8.58753 15.9093 8.20933C16.2875 7.83113 16.5 7.31819 16.5 6.78333C16.5 6.58884 16.5773 6.40232 16.7148 6.26479C16.8523 6.12726 17.0388 6.05 17.2333 6.05C17.4278 6.05 17.6144 6.12726 17.7519 6.26479C17.8894 6.40232 17.9667 6.58884 17.9667 6.78333C17.9667 7.31819 18.1791 7.83113 18.5573 8.20933C18.9355 8.58753 19.4485 8.8 19.9833 8.8C20.5182 8.8 21.0311 8.58753 21.4093 8.20933C21.7875 7.83113 22 7.31819 22 6.78333V6.40933C22 6.23455 21.9376 6.0655 21.824 5.93267L17.996 1.46667H5.47067L1.64267 5.93267C1.52907 6.0655 1.46665 6.23455 1.46667 6.40933V6.78333C1.46667 7.31819 1.67914 7.83113 2.05733 8.20933C2.43553 8.58753 2.94848 8.8 3.48333 8.8C4.01819 8.8 4.53113 8.58753 4.90933 8.20933C5.28753 7.83113 5.5 7.31819 5.5 6.78333C5.5 6.58884 5.57726 6.40232 5.71479 6.26479C5.85231 6.12726 6.03884 6.05 6.23333 6.05C6.42782 6.05 6.61435 6.12726 6.75188 6.26479C6.8894 6.40232 6.96667 6.58884 6.96667 6.78333ZM2.2 11C2.39449 11 2.58102 11.0773 2.71854 11.2148C2.85607 11.3523 2.93333 11.5388 2.93333 11.7333V20.5333H20.5333V11.7333C20.5333 11.5388 20.6106 11.3523 20.7481 11.2148C20.8856 11.0773 21.0722 11 21.2667 11C21.4612 11 21.6477 11.0773 21.7852 11.2148C21.9227 11.3523 22 11.5388 22 11.7333V20.5333H22.7333C22.9278 20.5333 23.1143 20.6106 23.2519 20.7481C23.3894 20.8856 23.4667 21.0722 23.4667 21.2667C23.4667 21.4612 23.3894 21.6477 23.2519 21.7852C23.1143 21.9227 22.9278 22 22.7333 22H0.733333C0.538841 22 0.352315 21.9227 0.214788 21.7852C0.0772617 21.6477 2.12147e-08 21.4612 2.12147e-08 21.2667C2.12147e-08 21.0722 0.0772617 20.8856 0.214788 20.7481C0.352315 20.6106 0.538841 20.5333 0.733333 20.5333H1.46667V11.7333C1.46667 11.5388 1.54393 11.3523 1.68145 11.2148C1.81898 11.0773 2.00551 11 2.2 11ZM5.13333 11.7333C5.32783 11.7333 5.51435 11.8106 5.65188 11.9481C5.7894 12.0856 5.86667 12.2722 5.86667 12.4667V17.6H17.6V12.4667C17.6 12.2722 17.6773 12.0856 17.8148 11.9481C17.9523 11.8106 18.1388 11.7333 18.3333 11.7333C18.5278 11.7333 18.7143 11.8106 18.8519 11.9481C18.9894 12.0856 19.0667 12.2722 19.0667 12.4667V17.6C19.0667 17.989 18.9121 18.362 18.6371 18.6371C18.362 18.9121 17.989 19.0667 17.6 19.0667H5.86667C5.47768 19.0667 5.10463 18.9121 4.82958 18.6371C4.55452 18.362 4.4 17.989 4.4 17.6V12.4667C4.4 12.2722 4.47726 12.0856 4.61479 11.9481C4.75231 11.8106 4.93884 11.7333 5.13333 11.7333Z" fill="#14142A"/>
</svg>
