<svg width="23" height="21" viewBox="0 0 23 21" fill="none" xmlns="http://www.w3.org/2000/svg">
<path d="M1.15 16.125H10.7333V19.5H6.9V21H16.1V19.5H12.2667V16.125H21.85C22.1549 16.1247 22.4472 16.006 22.6628 15.7951C22.8784 15.5842 22.9996 15.2983 23 15V1.125C22.9996 0.826738 22.8784 0.540792 22.6628 0.329888C22.4472 0.118985 22.1549 0.000347365 21.85 0H1.15C0.84511 0.000347365 0.552809 0.118985 0.337219 0.329888C0.121629 0.540792 0.000355084 0.826738 0 1.125V15C0.000355084 15.2983 0.121629 15.5842 0.337219 15.7951C0.552809 16.006 0.84511 16.1247 1.15 16.125ZM1.53333 1.5H21.4667V14.625H1.53333V1.5Z" fill="#14142A"/>
</svg>
