<svg width="23" height="23" viewBox="0 0 23 23" fill="none" xmlns="http://www.w3.org/2000/svg">
<path d="M9.58325 8.625C11.1711 8.625 12.4583 7.33782 12.4583 5.75C12.4583 4.16218 11.1711 2.875 9.58325 2.875C7.99543 2.875 6.70825 4.16218 6.70825 5.75C6.70825 7.33782 7.99543 8.625 9.58325 8.625ZM9.58325 6.70833C9.05398 6.70833 8.62492 6.27927 8.62492 5.75C8.62492 5.22073 9.05398 4.79167 9.58325 4.79167C10.1125 4.79167 10.5416 5.22073 10.5416 5.75C10.5416 6.27927 10.1125 6.70833 9.58325 6.70833Z" fill="#14142A"/>
<path d="M3.83325 11.9791C3.83325 10.6558 4.90601 9.58337 6.22909 9.58337H12.9374C14.2605 9.58337 15.3333 10.6558 15.3333 11.9791V12.4584C15.3333 13.2949 14.975 14.2951 14.0164 15.0653C13.071 15.825 11.6317 16.2917 9.57928 16.2917C7.5228 16.2917 6.08503 15.8152 5.14268 15.0507C4.19054 14.2783 3.83325 13.2808 3.83325 12.4584V11.9791ZM6.22909 11.5C5.96436 11.5 5.74992 11.7146 5.74992 11.9791V12.4584C5.74992 12.7309 5.86781 13.1709 6.3502 13.5623C6.84236 13.9615 7.79845 14.375 9.57928 14.375C11.3641 14.375 12.3226 13.9675 12.8158 13.5712C13.2957 13.1857 13.4166 12.7483 13.4166 12.4584V11.9791C13.4166 11.7146 13.2021 11.5 12.9374 11.5H6.22909Z" fill="#14142A"/>
<path d="M4.79167 0C2.14531 0 0 2.14531 0 4.79167V14.375C0 17.0213 2.14531 19.1667 4.79167 19.1667H14.375C17.0213 19.1667 19.1667 17.0213 19.1667 14.375V4.79167C19.1667 2.14531 17.0213 0 14.375 0H4.79167ZM14.375 1.91667C15.9628 1.91667 17.25 3.20384 17.25 4.79167V14.375C17.25 15.9628 15.9628 17.25 14.375 17.25H4.79167C3.20384 17.25 1.91667 15.9628 1.91667 14.375V4.79167C1.91667 3.20384 3.20384 1.91667 4.79167 1.91667H14.375Z" fill="#14142A"/>
<path d="M4.7915 21.0831C5.6657 22.2471 7.05752 22.9997 8.62518 22.9997H14.3752C19.1387 22.9997 23.0002 19.1382 23.0002 14.3748V8.62482C23.0002 7.05715 22.2473 5.66533 21.0835 4.79114V14.3748C21.0835 18.0797 18.0801 21.0831 14.3752 21.0831H4.7915Z" fill="#14142A"/>
</svg>
