<svg width="20" height="20" viewBox="0 0 20 20" fill="none" xmlns="http://www.w3.org/2000/svg">
<path d="M6.60232 19.6973C6.12509 19.6945 5.66171 19.5366 5.28205 19.2474L3.25763 17.7413C2.79046 17.3771 2.48049 16.8478 2.39137 16.2621C2.30225 15.6765 2.44075 15.0789 2.77842 14.5922C2.95709 14.3284 3.07064 14.026 3.10974 13.7098C3.14884 13.3936 3.11238 13.0726 3.00336 12.7732L2.94468 12.6167C2.86877 12.3457 2.73002 12.0964 2.53971 11.8891C2.34939 11.6818 2.11287 11.5223 1.84935 11.4236H1.69287C1.1216 11.2315 0.649179 10.8218 0.37818 10.2834C0.107182 9.74511 0.0594895 9.1216 0.24546 8.54831L1.0474 6.00557C1.12122 5.71096 1.25714 5.43553 1.44604 5.19772C1.63494 4.9599 1.87248 4.76519 2.14274 4.62662C2.39442 4.49694 2.6698 4.41968 2.95221 4.3995C3.23462 4.37933 3.51818 4.41667 3.78574 4.50926C4.07707 4.60731 4.38793 4.63272 4.69131 4.58329C4.99469 4.53386 5.28141 4.41109 5.52655 4.22565L5.65368 4.12785C5.87558 3.95079 6.05492 3.72619 6.17848 3.47061C6.30204 3.21503 6.36667 2.93498 6.36761 2.6511V2.41639C6.36498 1.81799 6.59885 1.24279 7.0183 0.816005C7.43776 0.389224 8.00883 0.145427 8.60718 0.137695H11.101C11.3921 0.13848 11.6802 0.196769 11.9488 0.309216C12.2173 0.421663 12.461 0.586052 12.6658 0.792941C13.0964 1.23087 13.3356 1.8218 13.3308 2.43595V2.70978C13.3259 2.97946 13.3843 3.24653 13.5016 3.48945C13.6188 3.73238 13.7914 3.94435 14.0056 4.10829L14.1132 4.18653C14.3327 4.35112 14.5887 4.46021 14.8595 4.50448C15.1302 4.54876 15.4077 4.52691 15.6682 4.4408L16.0007 4.33322C16.2824 4.23984 16.5801 4.20415 16.8759 4.22828C17.1717 4.25242 17.4596 4.33588 17.7225 4.4737C17.9853 4.61152 18.2177 4.80087 18.4058 5.03045C18.5939 5.26003 18.7339 5.52514 18.8173 5.80997L19.5899 8.27448C19.7687 8.84404 19.7198 9.46072 19.4535 9.99503C19.1873 10.5293 18.7244 10.9397 18.162 11.14L17.9664 11.2084C17.6788 11.3026 17.4186 11.466 17.2089 11.6843C16.9991 11.9026 16.8462 12.169 16.7635 12.4602C16.6857 12.7309 16.6672 13.0153 16.7094 13.2938C16.7516 13.5723 16.8535 13.8384 17.008 14.0739L17.2623 14.4455C17.5995 14.9349 17.7367 15.5348 17.6458 16.1222C17.5549 16.7095 17.2427 17.2398 16.7733 17.6044L14.8076 19.1203C14.5701 19.3019 14.2979 19.433 14.0079 19.5055C13.7178 19.5779 13.416 19.5903 13.121 19.5417C12.826 19.4932 12.544 19.3847 12.2925 19.2231C12.041 19.0615 11.8252 18.8501 11.6585 18.6019L11.5411 18.4357C11.3809 18.195 11.1624 17.9988 10.9059 17.8654C10.6493 17.732 10.3632 17.6657 10.0741 17.6729C9.79833 17.68 9.52806 17.7519 9.28513 17.8827C9.0422 18.0135 8.83342 18.1996 8.67564 18.4259L8.4507 18.7486C8.2839 18.9985 8.06769 19.2116 7.81539 19.3748C7.5631 19.5379 7.28006 19.6477 6.98373 19.6973C6.8569 19.7097 6.72916 19.7097 6.60232 19.6973ZM2.48503 9.54585C3.03729 9.74278 3.5356 10.0666 3.93987 10.4913C4.34414 10.9159 4.64308 11.4295 4.81262 11.9908V12.1082C5.0238 12.6916 5.09314 13.317 5.01492 13.9326C4.93669 14.5482 4.71315 15.1363 4.36275 15.6484C4.3009 15.7168 4.26665 15.8057 4.26665 15.8978C4.26665 15.99 4.3009 16.0789 4.36275 16.1472L6.4654 17.7413C6.49284 17.7629 6.52456 17.7783 6.55845 17.7866C6.59234 17.7948 6.6276 17.7958 6.66188 17.7893C6.69616 17.7828 6.72865 17.769 6.75717 17.749C6.78569 17.7289 6.80959 17.7029 6.82726 17.6729L7.05219 17.3501C7.39144 16.8599 7.8445 16.4593 8.37252 16.1826C8.90054 15.9059 9.48779 15.7613 10.0839 15.7613C10.6801 15.7613 11.2673 15.9059 11.7953 16.1826C12.3234 16.4593 12.7764 16.8599 13.1157 17.3501L13.233 17.5262C13.2751 17.5858 13.3378 17.6277 13.4091 17.6435C13.4417 17.6483 13.475 17.6465 13.507 17.6381C13.5389 17.6297 13.5688 17.6149 13.5949 17.5946L15.6095 16.069C15.68 16.013 15.7264 15.9321 15.7392 15.843C15.7519 15.7539 15.73 15.6632 15.678 15.5898L15.4237 15.2181C15.0924 14.735 14.8738 14.1836 14.7841 13.6047C14.6944 13.0258 14.7358 12.4342 14.9054 11.8734C15.0772 11.2841 15.3881 10.7446 15.8119 10.3004C16.2357 9.85624 16.7599 9.52032 17.3405 9.32092L17.5361 9.25246C17.6176 9.2198 17.6829 9.15623 17.7177 9.07561C17.7526 8.99499 17.7541 8.90387 17.7219 8.82215L16.9591 6.38698C16.9408 6.34437 16.914 6.30593 16.8804 6.27399C16.8468 6.24205 16.807 6.21727 16.7635 6.20116C16.7347 6.18656 16.7029 6.17895 16.6706 6.17895C16.6383 6.17895 16.6065 6.18656 16.5777 6.20116L16.2452 6.30874C15.6827 6.49438 15.0836 6.54064 14.4992 6.44354C13.9149 6.34644 13.3629 6.10888 12.8907 5.75129L12.8516 5.66328C12.3985 5.32012 12.0311 4.8766 11.7782 4.36754C11.5254 3.85848 11.394 3.29773 11.3944 2.72934V2.42617C11.3962 2.3319 11.3611 2.24067 11.2966 2.17189C11.2404 2.12104 11.1671 2.09313 11.0912 2.09365H8.60718C8.56734 2.09614 8.52838 2.10647 8.49254 2.12405C8.4567 2.14164 8.42469 2.16612 8.39833 2.19611C8.37198 2.22609 8.35181 2.26099 8.33898 2.29879C8.32615 2.33659 8.32091 2.37655 8.32356 2.41639V2.66088C8.32363 3.24477 8.18963 3.82088 7.9319 4.34481C7.67417 4.86875 7.2996 5.32651 6.83704 5.68284L6.7099 5.78063C6.21087 6.16058 5.62603 6.41195 5.00694 6.51257C4.38785 6.61319 3.75351 6.55999 3.15984 6.35764C3.11542 6.34273 3.06734 6.34273 3.02292 6.35764C2.96773 6.39117 2.92616 6.44313 2.90556 6.50434L2.09384 9.05686C2.06554 9.1438 2.07217 9.23833 2.11233 9.32046C2.15248 9.40259 2.22301 9.46589 2.30899 9.49695L2.48503 9.54585Z" fill="#14142A"/>
<path d="M9.9178 13.3405C9.24081 13.3405 8.57902 13.1397 8.01612 12.7636C7.45323 12.3875 7.0145 11.8529 6.75543 11.2275C6.49636 10.602 6.42857 9.91376 6.56065 9.24978C6.69272 8.58579 7.01872 7.97589 7.49743 7.49718C7.97613 7.01848 8.58604 6.69248 9.25002 6.5604C9.914 6.42833 10.6022 6.49611 11.2277 6.75519C11.8532 7.01426 12.3877 7.45298 12.7639 8.01588C13.14 8.57878 13.3407 9.24057 13.3407 9.91756C13.3407 10.8254 12.9801 11.696 12.3382 12.3379C11.6963 12.9799 10.8256 13.3405 9.9178 13.3405ZM9.9178 8.45059C9.62766 8.45059 9.34404 8.53662 9.1028 8.69782C8.86156 8.85901 8.67353 9.08812 8.5625 9.35617C8.45147 9.62423 8.42242 9.91918 8.47902 10.2037C8.53562 10.4883 8.67534 10.7497 8.8805 10.9549C9.08566 11.16 9.34704 11.2997 9.63161 11.3563C9.91617 11.4129 10.2111 11.3839 10.4792 11.2729C10.7472 11.1618 10.9763 10.9738 11.1375 10.7326C11.2987 10.4913 11.3848 10.2077 11.3848 9.91756C11.3848 9.52849 11.2302 9.15536 10.9551 8.88025C10.68 8.60514 10.3069 8.45059 9.9178 8.45059Z" fill="#14142A"/>
</svg>
