<svg width="50" height="50" viewBox="0 0 50 50" fill="none" xmlns="http://www.w3.org/2000/svg">
<path d="M25 10.7143C23.2341 10.7143 21.5078 11.2379 20.0396 12.219C18.5713 13.2001 17.4269 14.5946 16.7511 16.226C16.0753 17.8575 15.8985 19.6528 16.243 21.3847C16.5875 23.1167 17.4379 24.7076 18.6866 25.9563C19.9352 27.205 21.5262 28.0554 23.2581 28.3999C24.9901 28.7444 26.7853 28.5676 28.4168 27.8918C30.0483 27.216 31.4428 26.0716 32.4238 24.6033C33.4049 23.135 33.9286 21.4088 33.9286 19.6429C33.9286 17.2749 32.9879 15.0038 31.3135 13.3294C29.639 11.655 27.368 10.7143 25 10.7143ZM25 25C23.9405 25 22.9047 24.6858 22.0237 24.0972C21.1428 23.5085 20.4561 22.6718 20.0506 21.6929C19.6452 20.7141 19.5391 19.6369 19.7458 18.5977C19.9525 17.5585 20.4627 16.604 21.2119 15.8548C21.9611 15.1056 22.9157 14.5954 23.9549 14.3886C24.9941 14.1819 26.0712 14.288 27.0501 14.6935C28.029 15.099 28.8657 15.7856 29.4543 16.6666C30.043 17.5476 30.3571 18.5833 30.3571 19.6429C30.3555 21.0632 29.7906 22.4248 28.7863 23.4292C27.782 24.4335 26.4203 24.9984 25 25Z" fill="#14142A"/>
<path d="M25 0C20.0555 0 15.222 1.46622 11.1108 4.21326C6.99952 6.96029 3.79521 10.8648 1.90302 15.4329C0.0108321 20.0011 -0.484251 25.0277 0.480379 29.8773C1.44501 34.7268 3.82603 39.1814 7.32234 42.6777C10.8187 46.174 15.2732 48.555 20.1228 49.5196C24.9723 50.4843 29.9989 49.9892 34.5671 48.097C39.1352 46.2048 43.0397 43.0005 45.7867 38.8892C48.5338 34.778 50 29.9445 50 25C49.9925 18.3719 47.3562 12.0174 42.6694 7.33058C37.9826 2.64379 31.6281 0.00746767 25 0ZM14.2857 43.5295V41.0714C14.2873 39.6511 14.8522 38.2894 15.8565 37.2851C16.8608 36.2808 18.2225 35.7158 19.6429 35.7143H30.3571C31.7775 35.7158 33.1392 36.2808 34.1435 37.2851C35.1478 38.2894 35.7127 39.6511 35.7143 41.0714V43.5295C32.4628 45.4281 28.7652 46.4286 25 46.4286C21.2348 46.4286 17.5372 45.4281 14.2857 43.5295ZM39.2723 40.9389C39.2368 38.5965 38.2824 36.3618 36.6148 34.7165C34.9472 33.0711 32.6998 32.1468 30.3571 32.1429H19.6429C17.3002 32.1468 15.0529 33.0711 13.3852 34.7165C11.7176 36.3618 10.7632 38.5965 10.7277 40.9389C7.48941 38.0474 5.20578 34.2405 4.17918 30.0223C3.15258 25.804 3.43144 21.3735 4.97883 17.3172C6.52622 13.261 9.26915 9.77048 12.8444 7.3078C16.4197 4.84512 20.6587 3.52647 25 3.52647C29.3414 3.52647 33.5803 4.84512 37.1556 7.3078C40.7309 9.77048 43.4738 13.261 45.0212 17.3172C46.5686 21.3735 46.8474 25.804 45.8208 30.0223C44.7942 34.2405 42.5106 38.0474 39.2723 40.9389Z" fill="#14142A"/>
</svg>
